<?xml version="1.0" encoding="utf-8"?>
<!-- Generator: Adobe Illustrator 19.1.0, SVG Export Plug-In . SVG Version: 6.00 Build 0)  -->
<svg version="1.1" id="Layer_1" xmlns="http://www.w3.org/2000/svg" xmlns:xlink="http://www.w3.org/1999/xlink" x="0px" y="0px"
	 viewBox="0 0 470 250" style="enable-background:new 0 0 470 250;" xml:space="preserve">
<style type="text/css">
	.st0{clip-path:url(#SVGID_2_);fill:#6AA6C2;}
</style>
<g>
	<defs>
		<rect id="SVGID_1_" width="470" height="250"/>
	</defs>
	<clipPath id="SVGID_2_">
		<use xlink:href="#SVGID_1_"  style="overflow:visible;"/>
	</clipPath>
	<path class="st0" d="M120.1,181c3.8-15.2,4.4-31.8,4.4-47.8c0-28.8-1-64.9-22.6-64.9c-15.4,0-22.6,13.2-22.6,63.7
		c0,51.8,8.4,63.7,22.6,63.7c3.6,0,6.8-0.6,9.6-3l-12.8-20.8l11-7.2L120.1,181z M218.2,147.9H248l-0.2-1.8
		c-0.4-9.8-0.8-30.6-14.4-30.6C221,115.5,218.2,138.7,218.2,147.9 M286.8,147.9h29.8l-0.2-1.8c-0.4-9.8-0.8-30.6-14.4-30.6
		C289.6,115.5,286.8,138.7,286.8,147.9 M353.7,129.1c0,9.8,8.4,15.8,16.6,22.6c8.4,7,16.6,14.6,16.6,28c0,16.4-11,29.4-28,29.4
		c-6.4,0-13.6-3-18.6-7v-15.2c5,5.2,10.4,10,18.2,10c9,0,15-7,15-15.6c0-10.2-8.2-17-16.6-24.4c-8.2-7.2-16.6-15.2-16.6-27.4
		c0-15.4,10.2-26.2,25.6-26.2c6.6,0,12.8,2.6,18,6.6v16h-0.4c-3.8-5.4-9.8-10.4-17-10.4C358.7,115.5,353.7,121.5,353.7,129.1
		 M329.7,158.9h-43.2v3c0,10.2,1.8,35,16,35c11.4,0,13-16,13-24.2h13.4c-0.2,15.6-6.2,36.4-25.2,36.4c-27,0-30.6-32-30.6-52.6
		c0-18.4,4-53.2,28.8-53.2c24,0,27.8,31.4,27.8,49.4V158.9z M261.2,158.9H218v3c0,10.2,1.8,35,16,35c11.4,0,13-16,13-24.2h13.4
		c-0.2,15.6-6.2,36.4-25.2,36.4c-27,0-30.6-32-30.6-52.6c0-18.4,4-53.2,28.8-53.2c24,0,27.8,31.4,27.8,49.4V158.9z M207.2,69.6
		h-22.6v137.9h-14V69.6h-22.6V56.8h59.1V69.6z M128.7,194.4l10.8,17l-10.8,7.2l-9.2-14.2c-4.6,3.8-11.6,5-18,5
		c-21,0-36.6-15.6-36.6-77.3c0-51,10-77.3,36.6-77.3c35.8,0,37.4,51.2,37.4,76.1C138.9,145.9,138.7,175.7,128.7,194.4 M470,126v-2
		c0,0,0-124-124-124H124C124,0,0,0,0,124v2c0,0,0,124,124,124h222C346,250,470,250,470,126"/>
</g>
</svg>
